<svg xmlns="http://www.w3.org/2000/svg" viewBox="0 0 811.41 773.61"><defs><style>.a4700302-ec63-49dc-8b82-99c02a308dea{fill:none;}.a4700302-ec63-49dc-8b82-99c02a308dea,.b40992e6-eef7-46ba-9467-92dbd04025c9,.f687add3-d5d0-4161-9b6d-f786977abacb{stroke:#ed1c24;stroke-miterlimit:10;}.b40992e6-eef7-46ba-9467-92dbd04025c9{fill:#231f20;}.f687add3-d5d0-4161-9b6d-f786977abacb{fill:#fff;}</style></defs><title>Asset 5</title><g id="f392c5b3-df15-4657-802d-d948ade30082" data-name="Layer 2"><g id="e2547692-3dfe-4bf5-83c6-ba3aa6113c7d" data-name="Layer 1"><line class="a4700302-ec63-49dc-8b82-99c02a308dea" x1="205.67" y1="287.81" x2="205.67" y2="485.81"/><path class="b40992e6-eef7-46ba-9467-92dbd04025c9" d="M205.67,288V513h-63V485.81l0-.82C76.29,488.13,41,496.19,22.18,504.26c-24,10.32-20.9,20.63-20.9,20.63L1,525l-.33.11c2.93,8.91,6.1,18,9.53,27.17S17.27,570.71,21.23,580C41.88,628.25,70,676.54,107.74,712.75s85.25,60.36,144.7,60.36a471.18,471.18,0,0,0,156.67-26.33C454.32,731,492.71,710,524.89,689s58.16-41.89,78.54-57.44,35.16-25.75,45-25.28,24.69,5.36,41.53,12.44S725.54,635,743.1,644.24s33.89,18.34,45.83,25.18,19.5,11.38,19.5,11.38l-.84-.88-.83-.88c-.27-.29-.55-.58-.82-.88l-.81-.88c-21.71-23.85-32.36-49-36.12-73.43s-.63-48,5.21-68.54a232.2,232.2,0,0,1,21.48-50.65,188.16,188.16,0,0,1,12.73-19.77l-85.21.21c-7,0-14-2-18-8-3-45-1-90-1-135,0-6,5-13,12-13,62-1,30.45-.56,92.21-.37,0,0-22.53-29.25-34.21-70.43s-12.51-94.27,30.91-142l1.63-1.77c.55-.59,1.11-1.17,1.67-1.76,0,0-30.22,18.16-65.33,36.56s-75.13,37-94.71,38-59.13-40.77-123.5-82.71S371.33.5,252.44.5,62.53,97.08,21.23,193.65C13.61,211.48,7,229.31,1.28,246.54h0s-12.39,41.26,204.39,41.27"/><path class="f687add3-d5d0-4161-9b6d-f786977abacb" d="M238.39,320.56a13.5,13.5,0,1,1,13.81-13.21A13.78,13.78,0,0,1,238.39,320.56Z"/><path class="f687add3-d5d0-4161-9b6d-f786977abacb" d="M237.28,453.48A13.43,13.43,0,0,0,225.21,467c.2,7.49,6.79,13.76,14.09,13.42s13.3-7.15,12.88-14.56A13.47,13.47,0,0,0,237.28,453.48Z"/><path class="f687add3-d5d0-4161-9b6d-f786977abacb" d="M529.11,333.18H742a17.13,17.13,0,0,1,17.13,17.13V418.5a17.35,17.35,0,0,1-17.35,17.35H529.63a17.12,17.12,0,0,1-17.12-17.12V349.79a16.61,16.61,0,0,1,16.61-16.61Z" transform="translate(1022.57 -249.98) rotate(90.2)"/><rect class="f687add3-d5d0-4161-9b6d-f786977abacb" x="382.59" y="333.18" width="246.67" height="102.67" rx="17.19" transform="translate(892.2 -120.07) rotate(90.2)"/><rect class="f687add3-d5d0-4161-9b6d-f786977abacb" x="252.67" y="333.18" width="246.67" height="102.67" rx="17.27" transform="translate(761.83 9.85) rotate(90.2)"/></g></g></svg>