<svg xmlns="http://www.w3.org/2000/svg" viewBox="0 0 1383.52 993.58"><defs><style>.bd12f001-f38d-4ddf-84ab-585a56d3d8a0{fill:none;}.bd12f001-f38d-4ddf-84ab-585a56d3d8a0,.ee2bc0a4-1296-463a-8e3c-34972ba61026{stroke:#231f20;stroke-miterlimit:10;stroke-width:3px;}.ee2bc0a4-1296-463a-8e3c-34972ba61026{fill:#fff;}</style></defs><title>Asset 1</title><g id="fa598a61-983b-4efc-b591-1f005679f0e6" data-name="Layer 2"><g id="aea151cf-f01a-40c2-9f8f-f96eb3bb71f8" data-name="Layer 2"><path class="bd12f001-f38d-4ddf-84ab-585a56d3d8a0" d="M1235.35,108.4c-6.8,1.1-93.32,15.38-100.09,16.63-49.94,9.23-97.92,25.65-146.41,40.18-34.29,10.29-68.86,14.1-104.51,8.5-41.61-6.54-80.55-20.87-118.18-39.05-23.69-11.45-46.86-24-70.16-36.2C646.69,72.58,595.9,50,544.68,28.15,505.51,11.46,465.09,1.67,422.62,1.5a504.75,504.75,0,0,0-61.71,3.43c-44.64,5.35-85.78,21.41-124.56,43.77-8.55,6.43-28.47,19.58-35.92,25.55a320.18,320.18,0,0,0-65.93,72c-26.73,39.83-46.23,83.33-61,128.8C63,307.65,53.63,340.73,45,373.92c-9.06,34.81-21.35,97.37-29.2,132.47"/><path class="bd12f001-f38d-4ddf-84ab-585a56d3d8a0" d="M1244,311.64c3.64-3.17,16.62-17.22,18.36-18.69,11.7-9.86,23-20.25,35.21-29.43,14.64-11,30.5-20.38,45-31.54,15.69-12.06,29.07-26.3,36.25-45.52,5.51-14.73,4-28.1-5.63-40.42-4.72-6-9.71-11.84-14.89-17.45a47.32,47.32,0,0,0-21.85-13.53c-23.87-7-76.31-7.44-101.11-6.66"/><path class="bd12f001-f38d-4ddf-84ab-585a56d3d8a0" d="M581.48,390.34c-4.22-.11-7.78-4.11-7.69-8.64s3.84-8.39,8.06-8.28,7.78,4.11,7.68,8.64S585.69,390.45,581.48,390.34Z"/><path class="bd12f001-f38d-4ddf-84ab-585a56d3d8a0" d="M589.52,614c.24,4.51-3.27,8.65-7.51,8.86s-8.09-3.61-8.21-8.16a8.05,8.05,0,0,1,7-8.21A8,8,0,0,1,589.52,614Z"/><path class="ee2bc0a4-1296-463a-8e3c-34972ba61026" d="M944.59,374h68.94a16.61,16.61,0,0,1,16.61,16.61V603.51A17.13,17.13,0,0,1,1013,620.64H944.82a17.35,17.35,0,0,1-17.35-17.35V391.1A17.12,17.12,0,0,1,944.59,374Z" transform="translate(1.74 -3.41) rotate(0.2)"/><rect class="ee2bc0a4-1296-463a-8e3c-34972ba61026" x="797.55" y="373.98" width="102.67" height="246.67" rx="17.19" transform="translate(1.74 -2.96) rotate(0.2)"/><rect class="ee2bc0a4-1296-463a-8e3c-34972ba61026" x="667.63" y="373.98" width="102.67" height="246.67" rx="17.27" transform="translate(1.74 -2.5) rotate(0.2)"/><path class="bd12f001-f38d-4ddf-84ab-585a56d3d8a0" d="M15.79,506.39c-1.15,7.23-2.3,14.48-3.09,21.75C10.29,550.42,7.87,572.69,5.78,595c-1.1,11.77-2.32,31.06-2.66,42.87-.81,27.82-2.27,55.69-1.3,83.46a476.48,476.48,0,0,0,9,77.25c9.36,46.59,23.07,90.94,55.92,127.27a194.78,194.78,0,0,0,49.45,39.93c32.15,18,67.4,24.56,103.67,26.13,13.57.59,27.28-.44,40.85-1.58,40-3.38,78.27-14.11,113.12-33.91,37.92-21.54,74.87-44.84,111.72-68.2,27.17-17.21,55.13-32.17,86.08-41.6,44.12-13.43,88.54-16.44,132.91-3.4,26.14,7.67,51.63,17.77,76.94,27.94,30.76,12.37,62.1,22.18,95,26.74,32.31,4.48,64.59,9.54,97.37,5,29.3-4.1,57.55-11.61,83-27,38.67-23.39,65.76-78.75,39.54-129.7-6.23-12.11-11.28-24.79-13.58-38.49-3.95-23.5-1.44-46.5,4.18-69.31,5.78-23.4,20-40.24,41.2-51.33,3.59-1.87,20.42-7.2,25.26-9.32a.15.15,0,0,0-.07-.29l-86.53-.3a13.39,13.39,0,0,1-13.34-13.43l.44-129a13.46,13.46,0,0,1,13.57-13.41l183.87,1.61a.15.15,0,0,0,.1-.26c-4.31-3.44-18.65-8.61-20.58-10.3-22.13-19.42-22.64-42-13.26-63.27,6.28-14.21,15.62-26.45,26.32-37.42"/><circle class="bd12f001-f38d-4ddf-84ab-585a56d3d8a0" cx="537.41" cy="729.91" r="13.5" transform="translate(-194.36 1264.77) rotate(-89.8)"/><circle class="bd12f001-f38d-4ddf-84ab-585a56d3d8a0" cx="435.74" cy="780.91" r="13.5" transform="translate(-346.68 1213.93) rotate(-89.8)"/><circle class="bd12f001-f38d-4ddf-84ab-585a56d3d8a0" cx="317.44" cy="807.78" r="13.5" transform="translate(-491.44 1122.4) rotate(-89.8)"/><circle class="bd12f001-f38d-4ddf-84ab-585a56d3d8a0" cx="167.59" cy="816.39" r="18"/><circle class="bd12f001-f38d-4ddf-84ab-585a56d3d8a0" cx="983.73" cy="801.24" r="18"/><circle class="bd12f001-f38d-4ddf-84ab-585a56d3d8a0" cx="1135.71" cy="220.65" r="18"/></g></g></svg>